<svg xmlns="http://www.w3.org/2000/svg" viewBox="0 0 419.5 67"><path d="M35.2.9C34-.3 32.2-.3 31 .9L.9 31c-.7.7-1 1.6-.8 2.5-.1.9.2 1.8.8 2.5L31 66.2c.6.6 1.3.9 2.1.9s1.5-.3 2.1-.9c1.2-1.2 1.2-3 0-4.2L6.8 33.5 35.2 5.1c1.2-1.2 1.2-3.1 0-4.2zM159.8 31L129.6.9c-.6-.6-1.3-.9-2.1-.9s-1.5.3-2.1.9c-.6.6-.9 1.3-.9 2.1s.3 1.5.9 2.1l28.4 28.4L125.4 62c-.6.6-.9 1.3-.9 2.1s.3 1.5.9 2.1c.6.6 1.3.9 2.1.9s1.5-.3 2.1-.9L159.8 36c.7-.7 1-1.6.8-2.5.2-.9-.1-1.8-.8-2.5zm-73.2 5.7v-1.1c0-5 1.6-9.6 4.1-13-.6-.6-1.1-1.3-1.5-2C85.8 14.3 78 9.3 71.7 9.3c-7.9 0-15.3 5.2-19.7 13.8-2.8 5.3-4.2 11.6-4.2 18.1 0 3.8.5 7.5 1.5 11 .4 1.3 1.4 2.2 2.8 2.4 6 .9 15.6 1.4 27.1-1.3 1.2-.3 1.7-1.6 1.1-2.6-1.4-2.2-2.3-4.9-2.3-7.7 0-1.5.2-2.8.6-4 .9-.8 3.2-1.9 8-2.3zm121-13c.2-.7.5-1.2 1-1.5.4-.3.9-.5 1.5-.5.9 0 1.5.3 1.8.8.4.5.5 1.5.5 2.8v4c0 1-.2 1.7-.6 2.2-.4.5-1 .7-1.9.7-.6 0-1.1-.1-1.5-.4-.4-.3-.9-.8-1.3-1.6-.7-1.1-1.5-1.9-2.6-2.5s-2.4-.8-3.9-.8c-1.9 0-3.5.6-4.7 1.9-1.2 1.3-1.8 2.8-1.8 4.8s.6 3.7 1.9 4.9c1.3 1.2 2.9 1.9 5 1.9 1.9 0 3.8-.5 5.7-1.6 1.9-1.1 3.1-1.6 3.5-1.6.6 0 1.1.2 1.5.7.4.5.6 1 .6 1.8 0 1.5-1.2 2.9-3.5 4.1s-5.1 1.8-8.3 1.8c-3.9 0-7.1-1.1-9.6-3.3-2.5-2.2-3.7-5.1-3.7-8.5 0-3.4 1.2-6.2 3.7-8.5 2.4-2.3 5.5-3.4 9.2-3.4 1.3 0 2.5.2 3.7.5s2.7.7 3.8 1.3zm36.2 10c0 3.5-1.2 6.3-3.7 8.5s-5.7 3.3-9.6 3.3c-3.9 0-7.1-1.1-9.6-3.3s-3.7-5.1-3.7-8.5 1.2-6.3 3.7-8.5 5.7-3.3 9.6-3.3c4 0 7.2 1.1 9.6 3.3 2.4 2.2 3.7 5.1 3.7 8.5zm-13.3 6.7c1.9 0 3.5-.6 4.7-1.9 1.2-1.3 1.8-2.9 1.8-4.8s-.6-3.5-1.8-4.8c-1.2-1.2-2.8-1.9-4.7-1.9-1.9 0-3.5.6-4.7 1.9-1.2 1.2-1.8 2.8-1.8 4.8s.6 3.6 1.9 4.8c1.1 1.3 2.7 1.9 4.6 1.9zm31.4-22c-1.1 0-1.9-.2-2.4-.6-.5-.4-.7-1.1-.7-2.1s.2-1.7.7-2.1c.5-.4 1.3-.6 2.4-.6h7.6c.6 0 .9.1 1.1.3s.3.7.3 1.3v25h.4c.9 0 1.5.2 2 .7.4.4.7 1.1.7 2 0 1-.2 1.7-.7 2.1-.5.4-1.2.6-2.4.6h-3.7c-.5 0-.8-.1-1.1-.3s-.4-.4-.4-.8v-1.7c-.8 1.1-1.9 1.9-3.1 2.5-1.2.6-2.6.9-4.2.9-3.2 0-5.9-1.1-8-3.3s-3.2-4.9-3.2-8.1c0-3.3 1.1-6.1 3.2-8.4 2.2-2.3 4.8-3.4 8-3.4 1.3 0 2.5.2 3.6.6 1.1.4 2.2.9 3.1 1.7v-6.2h-3.2zm-2.4 22c1.6 0 3-.6 4-1.8s1.6-2.7 1.6-4.6c0-1.8-.5-3.4-1.6-4.5s-2.4-1.8-4-1.8-2.9.6-4 1.8c-1 1.2-1.6 2.7-1.6 4.5 0 1.9.5 3.4 1.6 4.6 1.1 1.2 2.4 1.8 4 1.8zm24.5-5.3c.4 1.8 1.2 3.2 2.4 4 1.2.9 2.8 1.3 4.9 1.3s4-.5 6-1.5 3.1-1.5 3.4-1.5c.7 0 1.2.2 1.6.7s.6 1 .6 1.7c0 1.5-1.1 2.8-3.4 4-2.3 1.1-5.1 1.7-8.4 1.7-3.9 0-7.1-1.1-9.6-3.3s-3.7-5.1-3.7-8.5 1.2-6.3 3.7-8.5 5.7-3.3 9.6-3.3c3.5 0 6.4 1 8.7 3.1 2.3 2.1 3.5 4.6 3.5 7.6 0 1-.2 1.6-.7 2-.5.4-1.4.5-2.9.5H284zm0-3.8h13.1c-.3-1.5-1-2.7-2.1-3.5-1.1-.8-2.6-1.2-4.5-1.2-1.8 0-3.2.4-4.3 1.2-1 .7-1.8 1.9-2.2 3.5z" fill="#231f20"/><path d="M332.6 43.5c0 1-.6 1.5-1.8 1.5h-5.2v-3.1c-2.2 2.6-5 3.9-8.3 3.9-3.2 0-5.8-1.1-7.9-3.4-2.1-2.2-3.1-5-3.1-8.1 0-3.1 1.1-5.8 3.2-8.1 2.2-2.3 4.8-3.5 7.9-3.5 3.1 0 5.9 1.3 8.2 3.9V17h-2.5c-1-.1-1.5-.7-1.5-1.5 0-1 .6-1.4 1.9-1.4h5.1v28h2.4c1.1.1 1.6.6 1.6 1.4zm-7-9.3c0-2.4-.8-4.4-2.3-6-1.6-1.7-3.5-2.6-5.9-2.6-2.4 0-4.3.8-5.9 2.5s-2.3 3.7-2.3 6.1c0 2.4.8 4.4 2.3 6 1.6 1.7 3.5 2.6 5.9 2.6 2.3 0 4.2-.9 5.8-2.6 1.6-1.7 2.4-3.7 2.4-6zm34.7 9.3c0 1-.6 1.5-1.8 1.5h-4.1v-2.3c-2.6 2.1-5.4 3.1-8.3 3.1-2.1 0-3.7-.6-5-1.9-1.3-1.2-1.9-2.9-1.9-5V26.6c-1 0-1.7 0-1.9-.1-.7-.2-1.1-.6-1.1-1.3 0-1 .6-1.5 1.8-1.5h4.1v15.2c0 1.1.4 2.1 1.1 2.8.7.8 1.7 1.1 2.8 1.1 3.1 0 5.9-1.4 8.4-4.1V26.5H352c-1-.1-1.6-.6-1.6-1.4 0-1 .6-1.5 1.8-1.5h5.1V42c1 0 1.6 0 1.9.1.7.3 1.1.7 1.1 1.4zm29.6-3.3c0 .8-.9 1.8-2.6 3-2.7 1.8-5.6 2.6-8.8 2.6-3.3 0-6-1.1-8.2-3.2-2.1-2.1-3.2-4.8-3.2-8.1 0-3.4 1.1-6.2 3.3-8.3 2.2-2.2 4.9-3.3 8.3-3.3 3 0 5.4.7 7.2 2.2v.3c0-1.2.5-1.8 1.4-1.8.3 0 .6.1.8.2.5.5.8 1 .8 1.6v4.5c0 1.2-.5 1.8-1.5 1.8-.6 0-1-.3-1.2-.9-.2-.6-.4-1.3-.6-1.9-.5-.9-1.3-1.6-2.4-2.1-1.4-.7-2.9-1-4.5-1-2.6 0-4.6.8-6.2 2.4s-2.3 3.7-2.3 6.3c0 2.5.8 4.5 2.4 6s3.7 2.3 6.2 2.3c3.2 0 6.1-1.1 8.7-3.4.4-.4.8-.6 1.2-.6.7 0 1.2.5 1.2 1.4zm29.6 3.3c0 1-.6 1.5-1.9 1.5h-6.5c-1.2 0-1.7-.5-1.7-1.5s.7-1.5 2.1-1.5l-7.5-7.7-1.8 1.5V45h-4.1c-.7 0-1.3-.3-1.6-.9l-.1-.6c0-.3.1-.7.4-1.1.5-.3 1.3-.5 2.5-.4V17h-2.5c-1-.1-1.6-.7-1.6-1.5 0-1 .6-1.4 1.7-1.4h5.2v18l6.7-5.7h.2c-1.2 0-1.8-.5-1.8-1.5s.6-1.5 1.8-1.5h5.4c1.2 0 1.7.5 1.7 1.5 0 1.1-1 1.6-2.9 1.5l-7.2 6.1 9.3 9.6h2.4c1.3.1 1.8.5 1.8 1.4z" fill="#f49623"/><path d="M115.7 32.5c0 1.2-.3 2.4-1 3.2-.8 1.1-2 1.7-3.4 1.7-.8 0-2.4-.1-4.5-.3l-.7-.1c-2.6-.2-6.3-.5-10-.6h-3.7c-.6 0-1.2.1-1.8.1-.2 0-.4 0-.6.1v-1c0-4.9 1-8.8 3.5-12.1l.4.4c.4.4.8.7 1.2 1 2 1.5 5.1 1.7 7.7 1.9 1.4.1 2.9.2 4.1.2 1.9.1 3.5.2 4.3.2 2.6.2 4.5 2.4 4.5 5.3z" fill="#f59c21"/></svg>