<?xml version="1.0" encoding="utf-8"?>
<!-- Generator: Adobe Illustrator 25.2.3, SVG Export Plug-In . SVG Version: 6.00 Build 0)  -->
<svg version="1.1" id="Camada_1" xmlns="http://www.w3.org/2000/svg" xmlns:xlink="http://www.w3.org/1999/xlink" x="0px" y="0px"
	 viewBox="0 0 419.5 67" style="enable-background:new 0 0 419.5 67;" xml:space="preserve">
<style type="text/css">
	.st0{fill:#231F20;}
	.st1{fill:#F49623;}
	.st2{fill:#F59C21;}
</style>
<g>
	<g>
		<path class="st0" d="M35.2,0.9c-1.2-1.2-3-1.2-4.2,0L0.9,31c-0.7,0.7-1,1.6-0.8,2.5c-0.1,0.9,0.2,1.8,0.8,2.5L31,66.2
			c0.6,0.6,1.3,0.9,2.1,0.9c0.8,0,1.5-0.3,2.1-0.9c1.2-1.2,1.2-3,0-4.2L6.8,33.5L35.2,5.1C36.4,3.9,36.4,2,35.2,0.9z"/>
		<path class="st0" d="M159.8,31L129.6,0.9c-0.6-0.6-1.3-0.9-2.1-0.9c-0.8,0-1.5,0.3-2.1,0.9c-0.6,0.6-0.9,1.3-0.9,2.1
			s0.3,1.5,0.9,2.1l28.4,28.4L125.4,62c-0.6,0.6-0.9,1.3-0.9,2.1c0,0.8,0.3,1.5,0.9,2.1c0.6,0.6,1.3,0.9,2.1,0.9
			c0.8,0,1.5-0.3,2.1-0.9L159.8,36c0.7-0.7,1-1.6,0.8-2.5C160.8,32.6,160.5,31.7,159.8,31z"/>
	</g>
	<path class="st0" d="M86.6,36.7c0-0.4,0-0.7,0-1.1c0-5,1.6-9.6,4.1-13c-0.6-0.6-1.1-1.3-1.5-2C85.8,14.3,78,9.3,71.7,9.3
		c-7.9,0-15.3,5.2-19.7,13.8c-2.8,5.3-4.2,11.6-4.2,18.1c0,3.8,0.5,7.5,1.5,11c0.4,1.3,1.4,2.2,2.8,2.4c6,0.9,15.6,1.4,27.1-1.3
		c1.2-0.3,1.7-1.6,1.1-2.6c-1.4-2.2-2.3-4.9-2.3-7.7c0-1.5,0.2-2.8,0.6-4C79.5,38.2,81.8,37.1,86.6,36.7z"/>
	<g>
		<path class="st0" d="M207.6,23.7c0.2-0.7,0.5-1.2,1-1.5c0.4-0.3,0.9-0.5,1.5-0.5c0.9,0,1.5,0.3,1.8,0.8c0.4,0.5,0.5,1.5,0.5,2.8v4
			c0,1-0.2,1.7-0.6,2.2c-0.4,0.5-1,0.7-1.9,0.7c-0.6,0-1.1-0.1-1.5-0.4c-0.4-0.3-0.9-0.8-1.3-1.6c-0.7-1.1-1.5-1.9-2.6-2.5
			s-2.4-0.8-3.9-0.8c-1.9,0-3.5,0.6-4.7,1.9c-1.2,1.3-1.8,2.8-1.8,4.8c0,2,0.6,3.7,1.9,4.9c1.3,1.2,2.9,1.9,5,1.9
			c1.9,0,3.8-0.5,5.7-1.6c1.9-1.1,3.1-1.6,3.5-1.6c0.6,0,1.1,0.2,1.5,0.7c0.4,0.5,0.6,1,0.6,1.8c0,1.5-1.2,2.9-3.5,4.1
			s-5.1,1.8-8.3,1.8c-3.9,0-7.1-1.1-9.6-3.3c-2.5-2.2-3.7-5.1-3.7-8.5c0-3.4,1.2-6.2,3.7-8.5c2.4-2.3,5.5-3.4,9.2-3.4
			c1.3,0,2.5,0.2,3.7,0.5S206.5,23.1,207.6,23.7z"/>
		<path class="st0" d="M243.8,33.7c0,3.5-1.2,6.3-3.7,8.5c-2.5,2.2-5.7,3.3-9.6,3.3c-3.9,0-7.1-1.1-9.6-3.3s-3.7-5.1-3.7-8.5
			s1.2-6.3,3.7-8.5c2.5-2.2,5.7-3.3,9.6-3.3c4,0,7.2,1.1,9.6,3.3C242.5,27.4,243.8,30.3,243.8,33.7z M230.5,40.4
			c1.9,0,3.5-0.6,4.7-1.9c1.2-1.3,1.8-2.9,1.8-4.8s-0.6-3.5-1.8-4.8c-1.2-1.2-2.8-1.9-4.7-1.9c-1.9,0-3.5,0.6-4.7,1.9
			c-1.2,1.2-1.8,2.8-1.8,4.8c0,2,0.6,3.6,1.9,4.8C227,39.8,228.6,40.4,230.5,40.4z"/>
		<path class="st0" d="M261.9,18.4c-1.1,0-1.9-0.2-2.4-0.6c-0.5-0.4-0.7-1.1-0.7-2.1c0-1,0.2-1.7,0.7-2.1c0.5-0.4,1.3-0.6,2.4-0.6
			h7.6c0.6,0,0.9,0.1,1.1,0.3s0.3,0.7,0.3,1.3v25h0.4c0.9,0,1.5,0.2,2,0.7c0.4,0.4,0.7,1.1,0.7,2c0,1-0.2,1.7-0.7,2.1
			c-0.5,0.4-1.2,0.6-2.4,0.6h-3.7c-0.5,0-0.8-0.1-1.1-0.3s-0.4-0.4-0.4-0.8v-1.7c-0.8,1.1-1.9,1.9-3.1,2.5c-1.2,0.6-2.6,0.9-4.2,0.9
			c-3.2,0-5.9-1.1-8-3.3s-3.2-4.9-3.2-8.1c0-3.3,1.1-6.1,3.2-8.4c2.2-2.3,4.8-3.4,8-3.4c1.3,0,2.5,0.2,3.6,0.6
			c1.1,0.4,2.2,0.9,3.1,1.7v-6.2H261.9z M259.5,40.4c1.6,0,3-0.6,4-1.8s1.6-2.7,1.6-4.6c0-1.8-0.5-3.4-1.6-4.5s-2.4-1.8-4-1.8
			c-1.6,0-2.9,0.6-4,1.8c-1,1.2-1.6,2.7-1.6,4.5c0,1.9,0.5,3.4,1.6,4.6C256.6,39.8,257.9,40.4,259.5,40.4z"/>
		<path class="st0" d="M284,35.1c0.4,1.8,1.2,3.2,2.4,4c1.2,0.9,2.8,1.3,4.9,1.3s4-0.5,6-1.5s3.1-1.5,3.4-1.5c0.7,0,1.2,0.2,1.6,0.7
			s0.6,1,0.6,1.7c0,1.5-1.1,2.8-3.4,4c-2.3,1.1-5.1,1.7-8.4,1.7c-3.9,0-7.1-1.1-9.6-3.3s-3.7-5.1-3.7-8.5s1.2-6.3,3.7-8.5
			c2.5-2.2,5.7-3.3,9.6-3.3c3.5,0,6.4,1,8.7,3.1c2.3,2.1,3.5,4.6,3.5,7.6c0,1-0.2,1.6-0.7,2c-0.5,0.4-1.4,0.5-2.9,0.5H284z
			 M284,31.3h13.1c-0.3-1.5-1-2.7-2.1-3.5c-1.1-0.8-2.6-1.2-4.5-1.2c-1.8,0-3.2,0.4-4.3,1.2C285.2,28.5,284.4,29.7,284,31.3z"/>
		<path class="st1" d="M332.6,43.5c0,1-0.6,1.5-1.8,1.5h-5.2v-3.1c-2.2,2.6-5,3.9-8.3,3.9c-3.2,0-5.8-1.1-7.9-3.4
			c-2.1-2.2-3.1-5-3.1-8.1c0-3.1,1.1-5.8,3.2-8.1c2.2-2.3,4.8-3.5,7.9-3.5c3.1,0,5.9,1.3,8.2,3.9V17c-1.6,0-2.5,0-2.5,0
			c-1-0.1-1.5-0.7-1.5-1.5c0-1,0.6-1.4,1.9-1.4h5.1l0,28c1.5,0,2.3,0,2.4,0C332.1,42.2,332.6,42.7,332.6,43.5z M325.6,34.2
			c0-2.4-0.8-4.4-2.3-6c-1.6-1.7-3.5-2.6-5.9-2.6c-2.4,0-4.3,0.8-5.9,2.5s-2.3,3.7-2.3,6.1c0,2.4,0.8,4.4,2.3,6
			c1.6,1.7,3.5,2.6,5.9,2.6c2.3,0,4.2-0.9,5.8-2.6C324.8,38.5,325.6,36.5,325.6,34.2z"/>
		<path class="st1" d="M360.3,43.5c0,1-0.6,1.5-1.8,1.5h-4.1v-2.3c-2.6,2.1-5.4,3.1-8.3,3.1c-2.1,0-3.7-0.6-5-1.9
			c-1.3-1.2-1.9-2.9-1.9-5l0-12.3c-1,0-1.7,0-1.9-0.1c-0.7-0.2-1.1-0.6-1.1-1.3c0-1,0.6-1.5,1.8-1.5h4.1l0,15.2
			c0,1.1,0.4,2.1,1.1,2.8c0.7,0.8,1.7,1.1,2.8,1.1c3.1,0,5.9-1.4,8.4-4.1V26.5c-1.6,0-2.4,0-2.4,0c-1-0.1-1.6-0.6-1.6-1.4
			c0-1,0.6-1.5,1.8-1.5h5.1v18.4c1,0,1.6,0,1.9,0.1C359.9,42.4,360.3,42.8,360.3,43.5z"/>
		<path class="st1" d="M389.9,40.2c0,0.8-0.9,1.8-2.6,3c-2.7,1.8-5.6,2.6-8.8,2.6c-3.3,0-6-1.1-8.2-3.2c-2.1-2.1-3.2-4.8-3.2-8.1
			c0-3.4,1.1-6.2,3.3-8.3c2.2-2.2,4.9-3.3,8.3-3.3c3,0,5.4,0.7,7.2,2.2v0.3c0-1.2,0.5-1.8,1.4-1.8c0.3,0,0.6,0.1,0.8,0.2
			c0.5,0.5,0.8,1,0.8,1.6l0,4.5c0,1.2-0.5,1.8-1.5,1.8c-0.6,0-1-0.3-1.2-0.9c-0.2-0.6-0.4-1.3-0.6-1.9c-0.5-0.9-1.3-1.6-2.4-2.1
			c-1.4-0.7-2.9-1-4.5-1c-2.6,0-4.6,0.8-6.2,2.4s-2.3,3.7-2.3,6.3c0,2.5,0.8,4.5,2.4,6s3.7,2.3,6.2,2.3c3.2,0,6.1-1.1,8.7-3.4
			c0.4-0.4,0.8-0.6,1.2-0.6C389.4,38.8,389.9,39.3,389.9,40.2z"/>
		<path class="st1" d="M419.5,43.5c0,1-0.6,1.5-1.9,1.5h-6.5c-1.2,0-1.7-0.5-1.7-1.5c0-1,0.7-1.5,2.1-1.5l-7.5-7.7l-1.8,1.5l0,9.2
			h-4.1c-0.7,0-1.3-0.3-1.6-0.9l-0.1-0.6c0-0.3,0.1-0.7,0.4-1.1c0.5-0.3,1.3-0.5,2.5-0.4l0-25h-2.5c-1-0.1-1.6-0.7-1.6-1.5
			c0-1,0.6-1.4,1.7-1.4h5.2v18l6.7-5.7h0.2c-1.2,0-1.8-0.5-1.8-1.5c0-1,0.6-1.5,1.8-1.5h5.4c1.2,0,1.7,0.5,1.7,1.5
			c0,1.1-1,1.6-2.9,1.5l-7.2,6.1l9.3,9.6c1.5,0,2.3,0,2.4,0C419,42.2,419.5,42.6,419.5,43.5z"/>
	</g>
	<path class="st2" d="M115.7,32.5c0,1.2-0.3,2.4-1,3.2c-0.8,1.1-2,1.7-3.4,1.7c-0.8,0-2.4-0.1-4.5-0.3l-0.7-0.1
		c-2.6-0.2-6.3-0.5-10-0.6c-1.2,0-2.5,0-3.7,0c-0.6,0-1.2,0.1-1.8,0.1c-0.2,0-0.4,0-0.6,0.1c0-0.3,0-0.7,0-1c0-4.9,1-8.8,3.5-12.1
		c0.1,0.1,0.3,0.3,0.4,0.4c0.4,0.4,0.8,0.7,1.2,1c2,1.5,5.1,1.7,7.7,1.9c1.4,0.1,2.9,0.2,4.1,0.2c1.9,0.1,3.5,0.2,4.3,0.2
		C113.8,27.4,115.7,29.6,115.7,32.5z"/>
</g>
</svg>
